<svg xmlns="http://www.w3.org/2000/svg" viewBox="0 0 280.78 280.78"><defs><style>.cls-1{fill:none;stroke-width:14.4px;}.cls-1,.cls-3{stroke:#DDD300;}.cls-1,.cls-2,.cls-3{stroke-miterlimit:10;}.cls-2,.cls-3{fill:#DDD300;stroke-width:0.28px;}.cls-2{stroke:#478fb4;}</style></defs><title>logoUSE300px</title><g id="Layer_2" data-name="Layer 2"><g id="Layer_1-2" data-name="Layer 1"><circle class="cls-1" cx="140.39" cy="140.39" r="133.19"/><path class="cls-2" d="M60.54,147.31A99.4,99.4,0,0,0,28,154.92c3.06,5,20.6,31.4,55.79,42.34,18,5.59,31.49,4.32,40.5,1.69-11.31-1.53-26.92-7-43.21-23.35a111.21,111.21,0,0,1-20.54-28.29"/><path class="cls-2" d="M57.54,106c.38,5.85,3.63,37.37,29.69,63.43,16.33,16.33,31.54,20.69,42.1,21.23-8.23-7.76-20.05-24.07-20.05-53.73,0-3.61.18-7.28.53-10.9-23.18-17.28-47.23-19.71-52.27-20"/><path class="cls-3" d="M159.37,199c9,2.63,22.54,3.89,40.49-1.69,35.2-10.94,52.74-37.33,55.8-42.33a99.27,99.27,0,0,0-32.54-7.62,111.68,111.68,0,0,1-20.54,28.3c-16.29,16.29-31.89,21.81-43.21,23.34"/><path class="cls-2" d="M196.43,169.46c26.06-26.06,29.31-57.58,29.69-63.43-5,.32-29.12,2.76-52.27,20,.35,3.62.53,7.29.53,10.9,0,29.66-11.82,46-20,53.73,10.56-.54,25.76-4.9,42.1-21.23"/><path class="cls-3" d="M118,137c0,21.1,6.59,34.27,12.13,41.6a40,40,0,0,0,11.73,10.75c3.11-1.75,23.86-14.83,23.86-52.35,0-36.85-20-61.44-23.86-65.85C138,75.52,118,100.11,118,137"/><path class="cls-3" d="M111.19,116.37a111.8,111.8,0,0,1,5.53-19.47,96.83,96.83,0,0,0-23-15.63A94.86,94.86,0,0,0,89.8,105a113.11,113.11,0,0,1,21.39,11.42"/><path class="cls-3" d="M167,96.92a113.33,113.33,0,0,1,5.52,19.45,113.54,113.54,0,0,1,21.4-11.43A94.43,94.43,0,0,0,190,81.27,96.61,96.61,0,0,0,167,96.92"/></g></g></svg>